<svg width="250" height="59" xmlns="http://www.w3.org/2000/svg" fill="none">

 <g>
  <title>Layer 1</title>
  <text transform="matrix(1.60128 0 0 1.53525 -35.4677 -14.0965)" stroke="null" xml:space="preserve" text-anchor="start" font-family="'Lobster'" font-size="24" stroke-width="0" id="svg_3" y="26.49994" x="22.55558" fill="black">Партизанский</text>
  <text transform="matrix(0.638186 0 0 0.942909 64.1759 -113.172)" stroke="null" xml:space="preserve" text-anchor="start" font-family="'Lobster'" font-size="24" stroke-width="0" id="svg_4" y="173.54019" x="-96.92625" fill="black">физкультурно-оздоровительный центр</text>
  <path id="svg_5" d="m-10.55305,-19.24799l0.56913,0l0.17587,-0.54067l0.17587,0.54067l0.56913,0l-0.46044,0.33415l0.17588,0.54067l-0.46044,-0.33416l-0.46044,0.33416l0.17588,-0.54067l-0.46044,-0.33415z" stroke="null" fill="black"/>
  <path id="svg_6" d="m-0.32666,-2.80285l0.56913,0l0.17587,-0.54067l0.17587,0.54067l0.56913,0l-0.46044,0.33415l0.17588,0.54067l-0.46044,-0.33416l-0.46044,0.33416l0.17588,-0.54067l-0.46044,-0.33415z" stroke="null" fill="black"/>
  <path id="svg_8" d="m17.63862,-24.15389l0.56913,0l0.17587,-0.54067l0.17587,0.54067l0.56913,0l-0.46044,0.33415l0.17588,0.54067l-0.46044,-0.33416l-0.46044,0.33416l0.17588,-0.54067l-0.46044,-0.33415z" stroke="null" fill="black"/>
 </g>
</svg>