<svg width="230" height="59" xmlns="http://www.w3.org/2000/svg" fill="none">

 <g>
  <title>Layer 1</title>
  <text transform="matrix(1.20603 0 0 1.35477 -26.6847 -12.6125)" stroke="null" xml:space="preserve" text-anchor="start" font-family="'Ruda'" font-size="30" stroke-width="0" id="svg_3" y="31.78122" x="22.89314" fill="#2D4263">Партизанский</text>
  <text transform="matrix(0.429257 0 0 0.73682 43.5306 -76.1857)" stroke="null" xml:space="preserve" text-anchor="start" font-family="'Ruda'" font-size="30" stroke-width="0" id="svg_4" y="173.54019" x="-96.92625" fill="#2D4263">физкультурно-оздоровительный центр</text>
  <path id="svg_5" d="m-10.55305,-19.24799l0.56913,0l0.17587,-0.54067l0.17587,0.54067l0.56913,0l-0.46044,0.33415l0.17588,0.54067l-0.46044,-0.33416l-0.46044,0.33416l0.17588,-0.54067l-0.46044,-0.33415z" stroke="null" fill="#2D4263"/>
  <path id="svg_6" d="m-0.32666,-2.80285l0.56913,0l0.17587,-0.54067l0.17587,0.54067l0.56913,0l-0.46044,0.33415l0.17588,0.54067l-0.46044,-0.33416l-0.46044,0.33416l0.17588,-0.54067l-0.46044,-0.33415z" stroke="null" fill="#2D4263"/>
  <path id="svg_8" d="m17.63862,-24.15389l0.56913,0l0.17587,-0.54067l0.17587,0.54067l0.56913,0l-0.46044,0.33415l0.17588,0.54067l-0.46044,-0.33416l-0.46044,0.33416l0.17588,-0.54067l-0.46044,-0.33415z" stroke="null" fill="#2D4263"/>
 </g>
</svg>