<?xml version="1.0" standalone="no"?>
<!DOCTYPE svg PUBLIC "-//W3C//DTD SVG 20010904//EN"
 "http://www.w3.org/TR/2001/REC-SVG-20010904/DTD/svg10.dtd">
<svg version="1.0" xmlns="http://www.w3.org/2000/svg"
 width="640.000000pt" height="366.000000pt" viewBox="0 0 640.000000 366.000000"
 preserveAspectRatio="xMidYMid meet">
<metadata>
Created by potrace 1.16, written by Peter Selinger 2001-2019
</metadata>
<g transform="translate(0.000000,366.000000) scale(0.100000,-0.100000)"
fill="#000000" stroke="none">
<path d="M517 3603 c-3 -32 -3 -77 -1 -101 4 -47 -19 -117 -36 -107 -6 3 -10
-3 -10 -15 0 -16 -5 -20 -15 -16 -8 3 -31 -4 -50 -15 -22 -13 -44 -19 -58 -15
-13 3 -39 1 -58 -4 -29 -8 -34 -14 -33 -37 2 -38 -5 -53 -25 -53 -14 0 -14 2
-1 10 10 6 11 10 2 10 -6 0 -21 -9 -32 -20 -11 -11 -29 -20 -40 -20 -10 0 -31
-5 -45 -12 -22 -10 -28 -9 -41 10 -8 12 -24 22 -35 22 -14 0 -19 7 -19 25 0
14 -5 25 -10 25 -7 0 -9 -108 -8 -317 3 -275 5 -318 18 -318 8 0 20 -3 25 -7
18 -11 90 -6 122 9 38 18 49 50 25 77 -17 18 -16 19 23 13 22 -3 64 -9 93 -13
34 -4 52 -11 52 -20 0 -8 -8 -14 -17 -14 -13 0 -12 -4 7 -13 30 -15 47 -83 31
-125 l-9 -27 -2 25 c0 22 -2 23 -11 8 -11 -19 -39 -13 -39 8 0 16 -45 19 -55
4 -5 -8 -90 -50 -102 -50 -2 0 -1 6 3 13 6 9 4 9 -7 1 -20 -16 -116 -27 -124
-14 -3 5 -11 10 -16 10 -6 0 -7 -4 -4 -10 3 -5 1 -10 -4 -10 -7 0 -11 -45 -11
-129 l0 -129 30 -12 c16 -7 30 -16 30 -20 0 -5 15 -17 32 -27 18 -11 40 -33
48 -49 8 -16 21 -40 30 -54 25 -39 43 -106 36 -134 -5 -21 -13 -26 -39 -28
-51 -2 -65 1 -109 22 -22 11 -45 17 -49 14 -5 -3 -9 -206 -9 -452 l1 -447 48
-23 c64 -32 83 -66 83 -152 0 -37 -3 -77 -7 -89 -4 -12 -1 -44 6 -72 16 -60 8
-76 -47 -102 -86 -41 -84 -35 -84 -262 l0 -201 38 -17 c55 -25 90 -58 96 -90
13 -71 2 -67 165 -67 l149 0 11 29 c16 36 69 87 101 96 22 6 22 4 -6 -13 -31
-20 -94 -90 -94 -104 0 -5 110 -8 245 -8 211 0 245 2 245 15 0 8 -9 24 -19 34
-11 11 -21 35 -23 53 -3 30 -6 33 -33 30 -16 -1 -68 -4 -115 -6 l-85 -5 80 9
c103 11 146 22 156 40 18 35 39 89 39 99 0 7 9 22 20 34 11 12 18 27 16 34 -3
8 2 13 14 13 11 0 20 6 20 14 0 8 6 16 12 18 10 4 8 9 -3 21 -9 9 -19 14 -23
12 -3 -3 -4 -2 -1 1 2 4 -1 16 -7 28 -9 17 -5 16 19 -6 33 -32 45 -35 36 -11
-5 12 -2 15 10 10 9 -3 17 -4 17 -1 0 6 -62 64 -70 65 -33 4 -59 12 -81 23
-26 13 -29 12 -54 -18 l-26 -31 19 30 c37 58 38 62 17 45 -17 -14 -18 -14 -1
18 18 34 30 44 19 14 -6 -15 -5 -15 10 -3 20 16 22 31 5 31 -16 1 -51 68 -42
81 3 5 2 9 -3 8 -20 -3 -27 2 -13 11 12 8 11 10 -7 10 -13 0 -23 4 -23 8 0 5
16 7 35 6 28 -3 35 0 35 15 0 11 -7 21 -15 25 -8 3 -15 16 -15 28 0 36 -12 45
-56 40 -36 -3 -41 -7 -38 -25 3 -13 2 -16 -2 -7 -4 8 -12 18 -17 22 -6 4 0 9
14 12 13 2 36 7 52 11 29 6 33 19 17 59 -10 26 -43 36 -55 16 -3 -5 -11 -10
-18 -10 -6 0 4 11 23 24 31 21 34 28 32 62 -2 22 2 53 8 69 6 17 15 48 20 70
5 22 13 57 18 78 11 40 7 43 -32 26 -24 -11 -27 -32 -15 -95 4 -24 -2 -55 -11
-49 -5 3 -10 -3 -10 -14 0 -26 -16 -36 -23 -13 -2 9 -8 26 -13 36 -6 15 -4 17
6 11 11 -7 12 4 7 58 -4 41 -2 67 3 67 6 0 10 7 10 15 0 8 -4 15 -9 15 -4 0
-5 19 0 43 11 56 11 59 -1 52 -6 -3 -10 -15 -10 -25 0 -10 -3 -21 -7 -23 -5
-3 -8 8 -8 24 0 19 6 31 17 35 10 3 20 20 24 42 4 20 12 40 18 44 6 4 -34 8
-88 8 l-100 0 35 26 c19 14 53 34 77 45 25 11 40 24 36 30 -4 8 -9 7 -15 -2
-6 -10 -9 -8 -9 8 0 16 -8 23 -31 28 -17 4 -28 9 -25 12 3 3 19 1 35 -5 29
-10 31 -9 38 16 3 15 12 32 20 37 7 6 15 24 17 42 3 18 7 37 11 42 3 6 8 27
10 46 3 20 14 55 24 78 22 48 18 66 -10 41 -19 -17 -19 -17 -6 8 7 15 36 46
65 70 28 23 49 44 48 46 -2 1 -25 -7 -51 -18 -26 -11 -45 -23 -41 -27 3 -3 -3
-13 -15 -21 -31 -22 -34 -7 -5 25 l26 28 -44 5 c-25 3 -48 8 -51 12 -3 3 14 3
39 1 36 -4 47 -2 52 11 3 9 17 16 29 16 13 0 27 5 31 12 5 7 3 8 -6 3 -8 -5
-11 -4 -6 3 4 6 13 9 20 6 15 -6 40 21 32 35 -3 5 -1 12 4 14 6 3 5 4 -2 3 -7
-2 -13 -8 -13 -13 0 -6 -4 -15 -9 -20 -6 -5 -6 -2 -1 6 6 11 4 13 -10 7 -14
-5 -16 -4 -7 7 7 8 9 17 5 20 -3 4 1 7 9 7 19 0 101 66 104 83 2 7 9 36 17 65
8 28 11 52 8 53 -3 1 -17 1 -31 0 -23 -1 -23 0 -5 8 19 9 19 10 -4 10 -13 1
-29 -5 -35 -13 -7 -9 -19 -11 -36 -6 -24 8 -24 8 5 9 l30 2 -27 15 c-16 8 -28
17 -28 20 0 2 9 0 20 -6 11 -6 44 -10 73 -8 l51 3 9 44 c6 32 20 55 52 85 31
30 41 47 35 57 -7 11 -16 8 -42 -16 -22 -21 -26 -23 -13 -6 l20 24 -43 -6
c-23 -3 -61 -15 -85 -26 -39 -20 -40 -20 -19 -2 12 11 53 27 90 37 59 15 72
23 109 68 24 27 42 51 40 52 -1 2 -22 -1 -45 -7 -29 -6 -49 -6 -60 1 -14 9
-14 10 -1 8 19 -4 89 23 89 34 0 4 7 5 15 2 12 -5 15 3 15 35 l0 41 -72 1
c-59 0 -68 2 -48 10 14 6 33 8 42 5 10 -2 18 0 18 5 0 6 8 5 19 -1 13 -7 22
-7 26 0 10 17 -25 25 -107 25 -42 0 -74 4 -71 9 3 5 45 6 94 4 60 -4 90 -2 93
6 3 8 5 8 5 -1 1 -13 79 -6 99 10 28 22 3 66 -39 64 -13 0 -32 3 -41 7 -13 6
-21 2 -28 -15 -10 -22 -10 -21 -6 8 6 36 -8 51 -30 32 -12 -10 -13 -9 -8 5 3
9 1 16 -5 16 -6 0 -11 -17 -12 -37 0 -36 -1 -36 -10 -13 -6 14 -8 37 -5 52 3
16 0 28 -7 31 -7 2 -9 7 -6 11 4 4 14 0 22 -9 17 -17 42 -21 32 -5 -3 6 -1 10
4 10 6 0 11 -7 11 -15 0 -8 8 -19 19 -24 15 -9 26 -4 56 25 l38 36 -54 -3
c-51 -2 -138 21 -163 43 -15 12 6 10 54 -7 40 -14 45 -14 62 2 18 16 18 18 2
30 -10 7 -28 13 -42 13 -15 0 -21 4 -16 11 5 9 -1 10 -20 5 -15 -4 -26 -2 -26
4 0 5 9 10 20 10 11 0 20 5 20 11 0 7 -14 8 -39 4 -36 -6 -41 -4 -58 21 -13
20 -14 29 -5 32 7 2 10 7 8 11 -2 3 13 7 35 7 21 1 39 -2 39 -7 0 -5 5 -9 11
-9 8 0 8 4 2 13 -18 23 -13 94 8 113 10 9 19 23 19 29 0 7 6 15 14 18 18 7 53
81 61 128 3 20 14 44 25 54 49 44 43 45 -369 45 l-388 0 -6 -57z"/>
<path d="M3937 3638 c11 -13 26 -33 32 -45 7 -14 21 -23 36 -23 13 0 26 -4 29
-8 3 -5 -9 -6 -26 -4 l-31 5 20 -29 c35 -48 57 -64 105 -70 32 -5 54 -2 77 11
18 9 35 14 37 12 3 -2 -9 -10 -26 -17 -17 -7 -29 -18 -27 -24 3 -7 -10 -11
-34 -11 -21 -1 -36 2 -33 6 2 4 -1 11 -8 15 -7 4 -10 4 -6 -1 4 -4 3 -14 -3
-22 -8 -8 -8 -13 -1 -13 6 0 24 -22 40 -49 17 -27 47 -61 67 -76 19 -15 34
-30 32 -32 -3 -2 11 -19 29 -38 36 -37 60 -42 113 -24 18 6 34 9 37 6 3 -2
-22 -13 -55 -23 -35 -10 -57 -22 -54 -28 4 -6 8 -21 9 -35 2 -13 10 -31 20
-40 15 -15 15 -14 4 9 -12 23 -12 24 3 11 10 -7 17 -19 17 -25 0 -6 15 -20 32
-31 67 -39 117 -96 133 -148 8 -28 15 -60 14 -71 0 -12 -6 2 -13 30 -7 28 -22
67 -34 86 -23 37 -89 94 -99 85 -7 -8 49 -117 57 -112 4 3 6 -8 4 -22 -3 -33
42 -113 65 -113 58 0 224 62 259 97 17 16 45 17 40 1 -7 -20 -108 -65 -197
-88 -47 -12 -92 -24 -99 -26 -9 -3 -4 -12 15 -30 l28 -26 -27 16 c-22 13 -26
13 -22 2 3 -8 19 -19 35 -25 16 -5 32 -17 35 -25 3 -9 11 -13 18 -9 7 4 6 1
-2 -9 -10 -12 -8 -23 12 -59 13 -24 27 -55 30 -69 4 -14 -8 4 -26 40 -31 60
-35 65 -63 62 -16 -2 -32 -5 -34 -8 -3 -2 2 -25 10 -50 12 -41 20 -49 59 -66
25 -10 35 -17 23 -14 -13 2 -23 -1 -23 -7 0 -8 -4 -7 -12 1 -17 17 -25 15 -31
-7 -4 -17 0 -19 32 -15 33 4 34 4 17 -9 -19 -14 -18 -15 4 -56 28 -48 37 -43
46 22 6 42 5 47 -12 47 -16 0 -16 2 -4 10 9 5 19 5 26 -1 9 -8 9 -24 -2 -71
-8 -34 -12 -68 -10 -75 4 -9 30 -13 93 -13 67 -1 96 -5 123 -20 19 -11 31 -19
25 -19 -5 0 -21 6 -35 14 -25 14 -180 22 -180 8 0 -3 8 -16 18 -27 9 -11 0 -6
-21 12 -31 26 -42 31 -53 21 -10 -8 -14 -8 -14 0 0 6 -4 11 -10 11 -5 0 -10
-4 -10 -9 0 -11 98 -74 116 -74 7 0 11 -4 8 -9 -3 -5 -29 4 -58 20 -45 24 -52
26 -52 10 0 -9 2 -15 5 -13 2 3 9 -3 16 -12 8 -10 28 -17 58 -18 36 -1 53 -7
75 -28 16 -15 32 -24 37 -20 4 5 5 3 1 -4 -10 -17 32 -83 50 -76 7 3 11 9 8
14 -3 5 -10 7 -15 4 -5 -4 -9 -1 -9 4 0 14 16 14 43 0 12 -6 2 6 -23 27 -25
21 -63 57 -85 79 -23 22 -27 28 -10 14 77 -65 79 -66 155 -62 39 3 76 0 83 -5
7 -5 22 -13 35 -17 21 -6 22 -4 16 20 -15 61 100 225 168 241 34 7 168 -15
184 -30 23 -24 45 -66 39 -76 -3 -5 -2 -10 3 -10 5 0 14 -11 20 -25 9 -19 9
-25 -1 -25 -6 0 -4 -5 6 -11 9 -5 17 -19 17 -29 0 -21 55 -56 64 -42 3 5 28 8
56 6 42 -2 50 0 50 16 0 10 -7 20 -15 24 -8 3 -15 11 -15 17 0 7 3 9 7 5 4 -3
12 3 18 14 9 18 13 18 29 7 15 -11 16 -18 7 -34 -8 -16 -7 -24 4 -33 8 -7 15
-20 15 -29 0 -14 2 -14 10 -1 7 12 13 9 34 -15 26 -30 30 -46 26 -95 -2 -27
-57 -98 -77 -99 -7 -1 -16 -8 -21 -17 -7 -13 -19 -15 -65 -9 -32 4 -57 11 -57
16 0 15 -38 10 -44 -6 -3 -9 -19 -15 -41 -15 -29 0 -37 -5 -46 -26 -7 -21 -6
-31 5 -43 14 -15 12 -19 -14 -41 -17 -14 -30 -32 -31 -40 0 -10 -3 -9 -9 5 -7
17 -9 17 -9 3 -1 -10 -5 -18 -11 -18 -5 0 -10 -15 -11 -32 0 -31 -1 -32 -11
-10 -6 12 -18 22 -25 22 -12 0 -13 9 -8 40 7 43 -5 68 -74 145 -20 23 -8 13
26 -21 52 -53 61 -59 59 -38 -2 13 -6 27 -9 31 -10 10 -8 25 2 18 5 -3 13 0
16 6 4 5 13 8 21 5 22 -8 29 16 8 31 -18 13 -18 14 2 19 19 5 18 8 -17 47 -21
22 -37 45 -36 50 2 12 -52 29 -66 20 -9 -5 -74 11 -113 29 -11 5 -27 8 -35 6
-8 -2 -13 3 -11 11 2 9 -3 11 -13 7 -9 -3 -19 -6 -21 -6 -3 0 -2 -5 2 -12 13
-21 11 -56 -3 -51 -29 11 -10 -8 32 -33 44 -25 64 -45 26 -24 -38 20 -72 30
-66 20 4 -6 -6 -10 -22 -11 -30 -1 -108 -27 -84 -28 17 -1 6 -14 -14 -17 -26
-4 -10 21 25 38 34 17 25 18 -32 2 -10 -3 -18 -1 -18 5 0 6 -7 11 -16 11 -14
0 -14 -1 0 -16 19 -19 20 -31 4 -37 -19 -7 1 -36 51 -75 54 -41 39 -42 -17 -1
-33 24 -41 27 -36 12 5 -17 5 -17 -6 -1 -6 10 -10 20 -10 24 2 11 -53 43 -63
37 -4 -3 -1 -13 9 -24 9 -10 21 -16 27 -12 6 3 7 1 3 -5 -4 -7 3 -22 16 -35
49 -51 74 -82 53 -67 -11 8 -26 21 -32 29 -9 10 -13 11 -13 2 0 -7 -5 -9 -10
-6 -6 4 -8 10 -5 14 2 5 -11 25 -30 46 -18 21 -33 32 -32 24 4 -24 18 -40 29
-33 7 5 9 1 5 -9 -4 -11 6 -28 30 -52 31 -30 43 -35 82 -35 30 0 41 -3 32 -9
-8 -5 -10 -14 -6 -22 5 -8 -1 -6 -13 5 -11 10 -26 16 -33 14 -7 -2 19 -30 58
-61 72 -57 135 -125 128 -137 -6 -10 155 -164 191 -183 17 -9 37 -24 45 -34
12 -16 12 -17 -1 -8 -8 6 -35 24 -60 40 -25 15 -58 37 -75 49 l-30 20 20 -25
c11 -14 40 -49 65 -78 25 -29 45 -57 45 -62 0 -6 7 -14 15 -19 8 -5 12 -10 7
-10 -4 0 4 -22 18 -50 33 -66 24 -64 -15 2 -33 58 -38 60 -15 5 8 -20 15 -54
15 -75 0 -21 7 -47 15 -58 8 -10 14 -35 14 -54 0 -29 -2 -31 -9 -15 -8 19 -9
19 -9 -2 -1 -12 7 -37 18 -56 10 -18 22 -53 26 -78 4 -24 11 -51 16 -60 6 -11
4 -21 -6 -29 -9 -8 -15 -8 -15 -2 0 6 5 12 11 14 7 2 -2 19 -21 41 -34 39 -46
45 -47 25 0 -7 -10 -40 -21 -73 -11 -33 -23 -93 -26 -134 l-6 -74 30 28 29 27
-17 -35 c-9 -20 -23 -37 -30 -39 -8 -2 -20 -18 -27 -36 -13 -30 -13 -32 8 -32
17 -1 13 -5 -18 -21 -54 -27 -58 -32 -58 -79 0 -22 -2 -40 -4 -40 -3 0 -23 9
-60 28 -13 7 -25 12 -27 12 -4 0 -16 -74 -21 -120 -2 -26 -68 -129 -79 -123
-5 4 -7 -1 -3 -11 4 -10 -1 -25 -13 -38 -11 -12 -17 -25 -14 -30 3 -4 0 -8 -6
-8 -6 0 -8 -5 -4 -11 3 -6 0 -15 -7 -20 -10 -6 -11 -9 -1 -9 7 0 12 -13 12
-30 l0 -30 745 0 745 0 0 493 c0 481 -1 494 -20 512 -24 21 -26 41 -5 49 8 3
12 12 9 20 -3 8 -1 17 5 21 8 4 11 162 11 506 0 468 -1 499 -17 499 -18 0 -76
39 -59 40 5 0 1 9 -10 21 -10 12 -20 33 -22 48 -1 14 -4 42 -6 61 -5 53 -15
79 -37 91 -11 5 -17 14 -14 19 3 4 -1 10 -7 13 -10 3 -10 9 0 27 7 12 11 24 8
27 -3 3 0 10 5 17 5 6 16 19 23 30 20 29 93 26 117 -5 19 -24 19 -21 18 160
l0 183 -22 -20 c-44 -39 -162 -103 -182 -98 -11 3 -36 9 -55 13 -28 7 -37 16
-47 43 -19 57 -15 82 23 130 74 93 142 137 195 126 32 -6 69 -43 81 -80 3 -12
6 10 7 48 1 68 1 68 -24 64 -14 -3 -29 0 -33 7 -4 6 -22 20 -39 30 -21 12 -33
27 -33 40 0 12 -3 25 -7 29 -4 3 -8 14 -9 22 -1 9 -6 23 -10 32 -4 9 -8 28 -8
42 -2 33 -15 70 -26 70 -4 0 -10 16 -12 36 -4 31 1 42 38 79 45 47 124 81 132
57 2 -7 10 -12 18 -12 11 0 14 18 14 85 l0 85 -490 0 c-320 0 -490 -3 -490
-10 0 -5 -8 -10 -17 -10 -10 -1 -34 -7 -55 -14 -34 -12 -37 -12 -49 10 l-12
24 -369 0 c-326 0 -368 -2 -368 -16 0 -16 -56 -44 -90 -44 -11 0 -20 5 -20 10
0 6 10 10 23 10 21 1 21 1 3 11 -15 9 -16 13 -5 20 9 5 -19 9 -71 9 -49 0 -91
-5 -97 -11 -8 -8 -13 -8 -17 0 -5 7 -67 11 -183 11 l-176 0 20 -22z m1357 -99
c4 6 12 9 17 5 6 -4 5 -11 -2 -20 -7 -8 -14 -27 -15 -42 -4 -40 -9 -61 -17
-68 -4 -4 -7 -12 -7 -18 0 -7 3 -8 8 -1 4 7 18 0 35 -17 15 -15 23 -28 18 -28
-6 0 -8 -7 -5 -15 4 -10 0 -15 -16 -15 -12 0 -30 -4 -40 -10 -10 -5 -39 -12
-64 -15 -37 -5 -46 -3 -46 10 0 8 -7 15 -15 15 -8 0 -15 6 -16 13 0 9 -2 9 -6
-1 -4 -10 -8 -10 -19 -1 -12 10 -17 8 -28 -6 -15 -21 -27 -8 -19 23 3 13 14
22 31 24 19 2 32 13 43 38 18 38 52 76 88 100 13 8 30 20 39 27 11 7 19 8 23
1 4 -7 9 -6 13 1z m136 -325 c0 9 65 -17 78 -31 8 -7 11 -20 8 -29 -3 -8 1
-28 9 -44 21 -41 19 -71 -12 -137 -15 -32 -28 -64 -29 -71 -4 -24 -26 -42 -63
-53 -49 -15 -166 18 -199 56 -21 24 -21 26 -6 72 9 27 27 67 40 91 14 23 22
47 18 54 -4 6 -3 8 3 5 13 -8 32 14 55 62 10 20 18 29 18 21 1 -9 5 -5 10 8 9
22 11 22 40 7 16 -8 30 -13 30 -11z m601 -546 c5 -7 9 -24 9 -38 0 -15 4 -30
10 -36 6 -6 5 -30 -4 -67 -7 -31 -10 -57 -6 -57 4 0 5 -11 3 -24 -3 -13 3 -36
12 -50 10 -16 13 -26 6 -26 -6 0 -11 -11 -11 -24 0 -16 -7 -26 -22 -29 -26 -7
-38 1 -19 12 9 6 10 11 2 15 -6 4 -11 2 -11 -3 0 -6 -10 -11 -23 -11 -26 0
-72 42 -60 55 5 4 -7 5 -25 3 -27 -4 -35 -1 -42 16 -5 12 -9 17 -10 11 -2 -29
-20 27 -20 63 0 86 53 214 81 196 5 -3 9 1 9 9 0 11 11 12 57 6 31 -4 60 -14
64 -21z"/>
<path d="M2885 3267 c-11 -7 -22 -15 -25 -18 -3 -4 -16 -9 -29 -10 -28 -5 -42
-49 -15 -49 8 0 13 4 10 9 -6 10 24 25 32 16 3 -3 -1 -5 -9 -6 -8 0 -6 -4 5
-8 15 -6 3 -12 -50 -25 -79 -20 -127 -46 -166 -90 -33 -38 -37 -58 -5 -28 12
11 36 24 52 28 17 4 39 13 50 21 11 7 38 18 60 24 22 6 56 26 76 44 20 18 41
34 47 36 5 2 12 17 14 34 3 34 -14 42 -47 22z"/>
<path d="M3063 3215 c0 -8 8 -15 18 -15 10 0 20 -4 23 -9 4 -5 -4 -6 -16 -3
-22 5 -22 5 -6 -11 22 -23 54 -110 63 -174 4 -29 10 -53 13 -53 4 0 26 -17 48
-38 39 -34 122 -70 152 -64 6 2 12 -2 12 -8 0 -6 -4 -8 -10 -5 -5 3 -10 1 -10
-4 0 -6 6 -11 14 -11 8 0 18 -4 21 -10 4 -6 -1 -7 -12 -3 -10 3 -15 3 -11 -2
4 -4 20 -9 35 -10 50 -3 54 -5 48 -15 -3 -5 -2 -10 4 -10 5 0 17 -3 27 -7 10
-4 15 -2 11 4 -4 6 6 6 28 -1 19 -6 29 -14 23 -17 -6 -4 5 -10 23 -14 19 -4
52 -16 73 -26 22 -11 41 -19 43 -19 2 0 -21 22 -51 49 -58 52 -110 76 -156 69
-16 -2 -27 -1 -25 3 3 3 -7 7 -21 7 -14 0 -30 4 -36 10 -6 6 1 8 22 6 43 -5
30 10 -22 26 -56 18 -67 27 -26 23 l33 -3 -30 15 c-16 8 -38 14 -47 15 -20 0
-35 20 -16 21 7 0 -2 5 -20 10 -18 5 -30 14 -27 19 3 6 -5 15 -19 21 -14 7
-27 18 -30 26 -5 11 -1 11 16 2 30 -16 79 -29 73 -19 -3 5 -26 16 -51 26 -34
13 -42 19 -31 26 9 4 27 4 42 -2 40 -15 54 -11 22 6 -15 8 -25 19 -22 24 8 12
-55 61 -68 53 -7 -3 -9 -3 -5 2 4 4 -3 16 -15 27 -15 12 -5 10 28 -8 28 -15
57 -31 65 -35 8 -5 31 -15 50 -24 35 -16 35 -16 13 3 -12 11 -19 23 -15 27 4
5 2 5 -4 2 -6 -4 -21 2 -33 12 -12 10 -36 24 -54 31 -84 31 -84 32 38 17 17
-2 39 -7 50 -11 11 -4 3 2 -19 14 -21 12 -47 19 -57 17 -11 -3 -21 -2 -24 2
-2 5 -18 8 -35 9 -16 0 -40 4 -53 7 -12 4 -29 9 -38 11 -9 3 -16 -2 -16 -11z"/>
<path d="M2613 2913 c-12 -2 -48 -33 -81 -68 l-59 -64 19 56 c21 66 23 85 4
61 -7 -10 -18 -18 -24 -18 -14 0 -62 -84 -62 -109 0 -11 -4 -23 -10 -26 -5 -3
-11 -32 -11 -63 -1 -31 -4 -46 -6 -33 -4 21 -8 16 -25 -30 -11 -30 -20 -70
-20 -89 0 -28 -2 -31 -8 -15 -5 12 -9 14 -9 6 -1 -8 -4 -12 -7 -9 -3 4 6 35
19 70 34 88 48 131 43 135 -7 7 -22 -27 -55 -126 -18 -52 -30 -101 -29 -110 3
-20 -21 -101 -37 -121 -30 -38 -25 -41 8 -7 20 21 37 34 37 28 0 -5 -5 -13
-10 -16 -6 -4 -8 -16 -5 -28 5 -17 4 -19 -4 -7 -10 14 -15 7 -12 -13 1 -5 -3
-6 -8 -2 -6 3 -13 -7 -17 -22 -4 -15 -10 -32 -14 -38 -7 -11 -13 -54 -13 -97
0 -39 33 -119 45 -112 7 4 7 9 -1 13 -12 8 3 76 19 86 6 4 10 19 10 35 0 16 4
31 9 34 5 3 12 18 15 32 4 14 18 49 31 76 14 28 22 55 18 61 -4 6 -1 7 7 2 10
-6 12 -4 7 9 -4 10 -1 19 8 22 8 4 15 17 15 31 0 13 4 21 10 18 6 -3 10 3 10
14 0 12 5 21 10 21 6 0 10 5 10 11 0 16 26 39 35 31 5 -4 5 -1 1 6 -5 9 -1 19
12 28 36 25 65 81 53 102 -7 13 -7 22 1 30 7 7 8 12 3 12 -4 0 0 10 11 21 19
22 19 22 -4 8 -12 -8 -20 -20 -17 -27 3 -8 -2 -12 -13 -10 -10 2 -16 -3 -14
-10 1 -8 -1 -11 -6 -8 -5 3 -19 -4 -31 -15 -21 -20 -41 -18 -41 4 0 8 3 7 9
-2 7 -11 11 -10 19 5 5 11 11 24 12 29 6 23 24 55 32 55 4 0 8 9 8 21 0 11 4
18 8 15 5 -3 35 22 67 54 33 33 57 59 55 59 -3 -1 -15 -4 -27 -6z"/>
<path d="M3350 2781 c0 -16 24 -29 95 -50 40 -12 54 -19 32 -15 -21 3 -46 8
-55 11 -9 3 -14 3 -10 -1 3 -4 28 -14 55 -22 l48 -14 -47 5 c-32 3 -48 1 -48
-7 0 -6 3 -9 6 -5 6 6 51 -39 84 -84 11 -14 17 -29 13 -33 -3 -3 -2 -6 4 -6 6
0 26 -31 44 -70 19 -38 37 -70 42 -70 4 0 7 -6 7 -13 0 -8 29 -58 65 -112 36
-55 65 -105 65 -112 0 -7 5 -13 10 -13 6 0 10 -5 10 -11 0 -6 9 -24 21 -40 11
-16 18 -29 14 -29 -3 0 2 -13 11 -29 16 -28 16 -31 0 -55 -9 -14 -21 -26 -27
-26 -6 0 -7 -5 -4 -11 4 -6 1 -9 -6 -8 -22 4 -60 -11 -54 -22 4 -5 -3 -9 -15
-9 -12 0 -18 -4 -15 -10 3 -6 -4 -10 -17 -10 -72 -2 -129 -8 -140 -17 -16 -13
-59 -23 -118 -29 -67 -7 -119 -25 -151 -53 -16 -14 -29 -29 -29 -33 0 -4 -15
-23 -34 -41 -26 -26 -33 -40 -29 -59 3 -14 0 -29 -6 -32 -14 -9 -14 -66 0 -66
5 0 8 -4 4 -9 -3 -5 4 -12 15 -16 11 -3 20 -10 20 -14 0 -4 14 -5 31 -3 21 3
30 1 25 -6 -11 -19 5 -41 37 -48 44 -9 50 -14 37 -29 -6 -7 -25 -11 -45 -8
-20 2 -35 -1 -35 -7 0 -5 5 -10 12 -10 6 0 9 -3 5 -6 -7 -7 58 -54 74 -54 6 0
8 -4 5 -8 -6 -10 121 -8 152 2 18 6 20 11 12 21 -8 10 -3 14 25 17 19 2 40 -1
45 -6 7 -7 10 -6 10 2 0 7 7 12 15 12 8 0 15 -4 15 -10 0 -18 18 -10 23 11 5
17 9 19 26 10 27 -15 44 -14 38 2 -3 8 1 14 9 14 7 0 11 -4 8 -9 -8 -12 22
-39 38 -34 49 17 102 15 129 -5 25 -17 28 -25 25 -60 -2 -21 -1 -39 3 -39 12
0 15 -72 7 -158 -3 -42 -1 -52 9 -48 9 3 12 0 8 -9 -3 -8 2 -18 11 -21 9 -3
13 -10 10 -15 -3 -5 6 -9 19 -9 17 0 26 -7 30 -21 3 -12 10 -18 16 -14 6 3 11
2 11 -3 0 -22 123 -37 149 -17 12 8 13 6 8 -9 -7 -17 -4 -18 38 -13 26 4 44 3
41 -2 -8 -12 15 -22 87 -40 21 -5 43 -13 50 -19 20 -15 56 -21 61 -8 3 8 7 8
13 -2 12 -16 94 -24 110 -10 15 12 17 4 3 -21 -8 -15 -6 -17 15 -13 14 2 22 8
19 13 -3 5 -8 7 -12 5 -4 -2 -8 11 -9 29 -1 18 -12 45 -25 60 -13 15 -27 33
-33 39 -5 7 -28 31 -50 55 -22 23 -32 39 -22 36 9 -4 17 -3 17 3 0 17 -20 25
-34 13 -10 -8 -18 -6 -31 9 -10 11 -15 20 -10 20 4 0 14 -8 22 -18 13 -16 13
-15 4 4 -15 31 0 47 27 28 12 -8 20 -19 17 -24 -3 -5 3 -15 15 -22 23 -15 27
-30 5 -22 -20 8 -19 -2 3 -24 9 -9 26 -16 37 -15 11 2 14 0 8 -3 -19 -8 -16
-15 22 -59 19 -22 35 -46 35 -53 0 -9 9 -12 28 -9 15 2 21 2 15 0 -17 -6 -16
-18 2 -33 8 -7 15 -19 15 -26 0 -8 6 -11 16 -7 11 4 12 9 5 16 -6 6 -11 16
-11 21 0 6 9 -2 20 -19 19 -28 19 -31 3 -43 -13 -9 -14 -12 -2 -12 8 0 24 -3
37 -6 18 -5 21 -3 16 10 -3 9 -9 14 -14 11 -4 -2 -5 7 -2 22 l5 26 13 -24 c7
-13 13 -20 14 -16 0 5 14 -1 30 -13 17 -12 30 -17 30 -11 0 5 -8 14 -17 20
-14 8 -15 12 -4 25 12 14 12 16 -3 10 -17 -6 -23 11 -7 20 13 9 1 46 -15 46
-16 0 -19 -16 -4 -25 6 -3 10 -11 10 -16 0 -6 -4 -8 -9 -4 -6 3 -8 -4 -6 -15
2 -11 0 -20 -6 -20 -12 0 -12 77 1 85 6 4 7 11 4 17 -5 8 -1 9 10 5 10 -4 15
-3 11 3 -3 6 -13 10 -21 10 -9 0 -13 8 -11 22 2 13 2 17 0 11 -3 -7 -8 -13
-11 -13 -4 0 -6 -26 -5 -57 2 -44 0 -52 -6 -32 -5 15 -7 47 -6 72 3 41 2 44
-18 41 -13 -3 -16 -2 -7 2 17 8 30 24 30 39 0 6 -5 3 -11 -5 -8 -12 -9 -8 -6
15 2 17 2 25 0 18 -2 -7 -11 -9 -19 -6 -7 3 -11 9 -8 15 3 5 -5 26 -18 46 -14
20 -27 45 -31 54 -3 10 -12 15 -21 12 -14 -5 -29 10 -32 34 -1 6 2 12 8 12 6
0 -4 13 -22 29 -19 16 -30 33 -26 40 4 6 12 9 17 6 19 -12 8 13 -16 35 -14 13
-23 30 -21 37 3 7 0 15 -6 19 -7 4 -8 3 -4 -4 4 -7 2 -12 -5 -12 -8 0 -4 -9 8
-22 17 -20 28 -58 16 -58 -7 0 -57 62 -85 107 -15 24 -32 43 -37 43 -5 0 -13
9 -16 21 -4 11 -9 18 -12 15 -8 -8 18 -67 27 -61 4 3 7 -3 6 -13 0 -9 5 -16
12 -14 8 1 11 -2 7 -8 -4 -6 7 -29 24 -52 17 -23 31 -36 31 -28 0 8 7 4 17
-10 10 -14 17 -28 15 -32 -1 -4 9 -15 23 -24 28 -18 36 -57 9 -47 -10 3 -12 8
-5 12 6 4 1 12 -12 20 -20 13 -21 13 -9 -2 9 -10 10 -17 2 -22 -19 -12 -11
-27 12 -20 17 6 20 4 15 -9 -4 -11 -3 -15 4 -11 5 4 18 1 27 -6 13 -11 12 -8
-2 9 -11 12 -14 22 -8 22 6 0 17 -9 26 -21 10 -15 15 -17 19 -7 3 10 4 10 3
-1 -1 -16 -46 -26 -46 -10 0 5 -6 9 -12 7 -20 -4 -58 21 -58 37 0 7 -4 17 -10
20 -6 4 -7 -1 -3 -12 3 -10 3 -15 -1 -11 -4 3 -9 12 -10 20 -5 31 -29 59 -64
74 -20 9 -32 18 -25 21 10 3 10 7 0 17 -6 8 -18 11 -25 8 -8 -3 6 -23 41 -58
30 -30 48 -54 41 -54 -8 0 -11 -6 -7 -16 3 -9 9 -12 12 -7 3 5 14 1 23 -9 11
-10 13 -20 7 -24 -14 -8 -60 43 -53 60 3 8 1 17 -5 21 -6 3 -11 1 -11 -6 0 -8
-4 -9 -13 0 -10 8 -14 7 -14 -4 0 -8 4 -12 8 -10 3 3 13 -3 20 -12 11 -12 11
-17 2 -20 -7 -2 -9 -11 -6 -19 4 -11 8 -12 13 -4 5 8 9 7 13 -5 4 -9 3 -14 -2
-10 -5 3 -11 -1 -13 -7 -3 -8 -12 0 -21 17 -9 17 -16 25 -17 20 0 -6 7 -21 16
-33 9 -13 13 -26 9 -30 -3 -3 -10 0 -15 8 -6 8 -10 11 -10 7 0 -15 -80 84
-100 124 -11 21 -24 39 -29 39 -5 0 -27 28 -50 63 -37 56 -41 59 -41 34 0 -16
4 -36 9 -46 7 -13 6 -18 -5 -18 -10 0 -14 13 -14 49 0 37 -3 47 -12 42 -9 -6
-9 -3 0 9 11 12 11 20 2 34 -11 17 -11 17 -5 -2 3 -11 3 -16 -2 -12 -4 5 -8
22 -9 38 -1 17 -9 35 -18 42 -8 7 -18 28 -20 47 -3 19 -16 66 -31 105 -14 38
-23 75 -20 83 2 7 0 10 -5 7 -5 -3 -12 7 -15 22 -3 15 -11 46 -17 68 -6 22
-11 57 -12 77 0 21 -3 33 -6 28 -3 -5 -14 21 -24 58 -36 134 -48 177 -57 202
-4 14 -13 53 -20 87 -6 35 -18 71 -26 80 -13 17 -14 16 -7 -6 12 -43 -10 -14
-56 73 -69 135 -105 176 -181 213 -37 18 -80 34 -95 37 -16 2 -29 5 -29 6 0 1
-7 3 -15 5 -8 1 -46 15 -84 29 -77 29 -76 29 -76 17z"/>
<path d="M2204 2100 c4 -14 7 -31 7 -37 -1 -7 -2 -27 -3 -43 -1 -32 -13 -29
-21 5 -3 11 -5 1 -6 -23 0 -24 -5 -41 -10 -38 -5 3 -12 -26 -15 -66 -4 -39
-15 -82 -24 -96 -9 -13 -17 -41 -18 -61 -1 -20 -4 -43 -7 -51 -18 -52 -29
-125 -28 -187 0 -40 -3 -74 -7 -77 -4 -2 -6 13 -4 34 2 21 -1 47 -7 57 -10 17
-10 16 -11 -4 0 -12 -4 -25 -10 -28 -5 -3 -10 -20 -10 -36 0 -17 -4 -28 -9
-24 -12 7 -25 -31 -16 -45 3 -5 1 -10 -5 -10 -7 0 -9 -7 -6 -16 3 -8 2 -13 -3
-10 -9 6 -38 -53 -33 -67 1 -5 -3 -5 -9 -1 -9 5 -10 2 -6 -9 4 -10 2 -16 -4
-14 -6 1 -27 -28 -47 -64 -43 -77 -61 -101 -72 -94 -5 3 -12 0 -16 -6 -4 -8
-3 -9 4 -5 7 4 12 3 12 -1 0 -14 -23 -33 -39 -33 -19 0 -154 -101 -209 -157
-30 -30 -48 -41 -55 -35 -17 13 -51 12 -37 -2 20 -20 10 -26 -34 -20 -24 2
-47 1 -50 -4 -3 -5 6 -7 20 -4 24 4 25 3 15 -17 -7 -11 -19 -21 -28 -21 -9 0
-14 -2 -11 -5 3 -3 -8 -19 -24 -35 -31 -31 -50 -41 -28 -15 7 9 11 18 8 20 -3
3 -11 -1 -18 -10 -10 -12 -10 -18 1 -32 10 -11 10 -14 2 -9 -9 5 -13 0 -13
-15 0 -32 -9 -18 -12 18 -1 18 -6 30 -10 27 -4 -3 -5 -10 -2 -17 2 -7 -5 -22
-16 -34 -11 -12 -20 -27 -20 -33 0 -6 -5 -19 -12 -29 -12 -20 -4 -56 12 -46 6
4 7 -1 3 -11 -4 -12 -3 -15 5 -10 7 4 12 3 12 -2 0 -20 -14 -20 -31 1 l-18 22
6 -23 c3 -12 10 -22 15 -22 5 0 6 -6 1 -12 -4 -7 16 4 45 25 29 20 57 37 62
37 6 0 10 5 10 10 0 6 5 10 10 10 6 0 -17 -28 -51 -61 -33 -34 -57 -64 -52
-68 5 -3 12 -14 16 -24 6 -17 26 -19 37 -5 3 4 22 8 42 10 20 1 36 4 36 7 -2
18 3 31 12 31 5 0 7 -8 4 -17 -5 -16 -3 -15 10 1 9 11 18 17 22 14 3 -4 31 7
62 23 31 16 58 25 60 19 3 -9 39 4 52 19 3 3 21 14 40 23 19 10 42 22 50 27 8
5 56 29 107 54 51 24 90 47 87 50 -12 12 18 46 51 58 21 8 35 20 35 30 0 20
23 31 47 22 12 -5 15 -2 10 10 -3 9 -2 17 3 17 6 0 10 9 10 20 0 11 7 20 15
20 16 0 20 16 6 24 -5 3 -8 20 -7 38 2 18 -3 50 -10 70 -13 38 -8 108 8 119 4
3 9 28 11 55 1 27 7 55 14 61 6 7 13 17 15 22 1 6 21 11 43 12 22 1 65 8 95
17 30 8 68 14 83 13 15 -1 37 4 49 10 14 7 18 8 14 0 -4 -6 10 -5 34 4 22 8
39 11 36 7 -9 -15 57 0 89 19 16 11 42 19 58 19 15 0 27 5 27 10 0 6 7 10 17
10 9 0 31 11 49 25 18 14 36 25 40 25 4 0 13 8 20 18 10 13 13 14 14 3 0 -8
11 0 24 18 14 19 27 28 31 22 11 -19 25 -12 25 14 0 14 6 36 14 48 7 12 12 33
11 47 -1 14 -2 40 -3 58 -1 18 -6 31 -11 28 -5 -3 -21 13 -37 37 -37 54 -80
97 -98 97 -8 0 -17 8 -20 17 -6 14 -9 15 -15 4 -7 -10 -9 -10 -14 2 -3 9 -16
13 -32 11 -15 -1 -24 0 -21 3 10 10 -65 39 -134 52 -82 16 -85 16 -144 35
l-49 16 19 -22 19 -22 -31 22 c-17 11 -37 28 -44 36 -7 9 -17 13 -23 9 -5 -3
-7 -2 -4 4 3 5 -8 36 -25 69 -17 32 -27 48 -24 34z"/>
<path d="M1901 1273 c-1 -6 -22 -32 -48 -57 -26 -25 -44 -46 -39 -46 9 0 -14
-24 -29 -31 -19 -8 -80 -82 -77 -93 2 -6 0 -8 -3 -4 -4 4 -17 2 -29 -4 -11 -7
-25 -11 -29 -10 -5 1 -6 -2 -3 -7 3 -5 -13 -25 -37 -44 -92 -77 -111 -96 -95
-102 8 -3 34 13 65 42 28 26 83 71 122 98 39 28 69 55 66 62 -2 7 2 10 11 6 7
-3 14 -1 14 4 0 11 71 106 83 111 4 2 7 9 7 15 0 6 7 18 16 28 9 10 14 24 11
31 -4 9 -6 9 -6 1z"/>
<path d="M1572 153 c2 -14 -3 -18 -22 -17 -14 1 -28 -4 -32 -10 -4 -7 -9 -4
-14 7 -3 9 -10 17 -15 17 -5 0 -2 -11 7 -25 9 -14 14 -32 10 -40 -5 -14 11
-21 37 -16 5 1 5 -4 1 -11 -14 -22 -13 -37 2 -31 8 3 17 -2 20 -11 7 -18 84
-23 84 -6 0 6 7 10 15 10 8 0 15 4 15 9 0 5 -7 14 -15 21 -8 7 -15 18 -15 24
0 16 -39 48 -50 41 -5 -3 -11 -1 -15 5 -3 5 1 10 9 10 14 0 14 3 4 20 -16 25
-30 26 -26 3z"/>
</g>
</svg>
